# This file uses centimeters as units for non-parametric coordinates.

mtllib Butterfly.mtl
g default
v -0.215088 -0.024372 -0.690700
v -0.041449 -0.009180 -0.824132
v 0.201196 0.012049 -0.936623
v 0.274233 0.018438 -0.830990
v 0.346929 0.025502 -0.724256
v -0.282295 -0.030251 -0.474244
v 0.357453 0.025719 -0.544681
v -0.225608 -0.025292 -0.215286
v 0.315228 0.022025 -0.356302
v -0.131956 -0.017098 -0.010428
v -0.018927 -0.007210 -0.060117
v 0.117391 0.004717 -0.156894
v 0.160946 0.009002 -0.558922
v -0.028236 -0.007782 -0.390744
v -0.156619 -0.019171 -0.276615
v -0.767450 -0.069745 -0.619160
v -0.628289 -0.057570 -0.664503
v -0.503842 -0.046682 -0.682742
v -0.307947 -0.029544 -0.609471
v -0.852727 -0.077206 -0.555856
v -0.185600 -0.018840 -0.493167
v -0.872153 -0.078905 -0.423634
v -0.144741 -0.015265 -0.363088
v -0.750323 -0.068247 -0.290227
v -0.125176 -0.013553 -0.234077
v -0.561632 -0.051738 -0.158945
v -0.411369 -0.038592 -0.094870
v -0.242775 -0.023842 -0.034077
v -0.143155 -0.015126 -0.021225
v -0.687731 -0.062771 -0.482193
v -0.533562 -0.049282 -0.413364
v -0.362691 -0.034333 -0.337079
v -0.213343 -0.021267 -0.270402
v -0.767400 -0.070194 0.623554
v -0.628238 -0.058019 0.668897
v -0.503792 -0.047132 0.687135
v -0.307897 -0.029993 0.613865
v -0.852677 -0.077655 0.560250
v -0.185550 -0.019289 0.497561
v -0.872103 -0.079355 0.428027
v -0.144691 -0.015714 0.367482
v -0.750273 -0.068696 0.294620
v -0.125125 -0.014003 0.238471
v -0.561582 -0.052188 0.163339
v -0.411319 -0.039041 0.099263
v -0.242725 -0.024291 0.038471
v -0.143105 -0.015576 0.025618
v -0.687681 -0.063220 0.486587
v -0.533512 -0.049732 0.417758
v -0.362641 -0.034783 0.341473
v -0.213293 -0.021716 0.274796
v -0.212113 -0.019362 0.707695
v -0.038474 -0.004171 0.841127
v 0.204171 0.017058 0.953618
v 0.277208 0.023448 0.847986
v 0.350026 0.029116 0.741251
v -0.279320 -0.025242 0.491240
v 0.360428 0.030729 0.561677
v -0.222633 -0.020283 0.232281
v 0.318203 0.027034 0.373297
v -0.128981 -0.012089 0.027424
v -0.015952 -0.002200 0.077112
v 0.120366 0.009726 0.173890
v 0.164003 0.013069 0.575917
v -0.025219 -0.003253 0.407739
v -0.153629 -0.014330 0.293610
v -0.056340 -0.089095 -0.038698
v -0.210265 -0.090962 -0.038698
v -0.266439 -0.089739 -0.000000
v -0.210265 -0.090962 0.038698
v -0.056340 -0.089095 0.038698
v 0.020622 -0.091289 0.000000
v 0.000000 -0.065332 -0.067027
v -0.266605 -0.076624 -0.067027
v -0.345108 -0.076624 -0.000000
v -0.266605 -0.076624 0.067027
v 0.000000 -0.065332 0.067027
v 0.133303 -0.068711 0.000000
v 0.020622 -0.031495 -0.077396
v -0.287227 -0.049593 -0.077396
v -0.386352 -0.047260 -0.000000
v -0.287227 -0.049593 0.077396
v 0.020622 -0.031495 0.077396
v 0.174547 -0.034749 0.000000
v 0.000000 0.003372 -0.067027
v -0.266605 -0.020012 -0.067027
v -0.345108 -0.020012 -0.000000
v -0.266605 -0.020012 0.067027
v 0.000000 0.003372 0.067027
v 0.133303 0.000373 0.000000
v -0.056340 0.029449 -0.038698
v -0.210265 0.004538 -0.038698
v -0.266439 0.004384 -0.000000
v -0.210265 0.004538 0.038698
v -0.056340 0.029449 0.038698
v 0.020622 0.027843 0.000000
v -0.133303 -0.097032 0.000000
v -0.133303 0.028084 0.000000
v 0.144852 -0.061967 -0.038698
v 0.101690 -0.073533 -0.038698
v 0.080109 -0.079315 -0.000000
v 0.101690 -0.073533 0.038698
v 0.144852 -0.061967 0.038698
v 0.166433 -0.056185 -0.000000
v 0.153512 -0.031095 -0.067027
v 0.078754 -0.051127 -0.067027
v 0.041374 -0.061142 -0.000000
v 0.078754 -0.051127 0.067027
v 0.153512 -0.031095 0.067027
v 0.190891 -0.021079 -0.000000
v 0.149544 0.006844 -0.077396
v 0.063221 -0.016287 -0.077396
v 0.020059 -0.027852 -0.000000
v 0.063221 -0.016287 0.077396
v 0.149544 0.006844 0.077396
v 0.192706 0.018409 -0.000000
v 0.134011 0.041684 -0.067027
v 0.059253 0.021652 -0.067027
v 0.021873 0.011637 -0.000000
v 0.059253 0.021652 0.067027
v 0.134011 0.041684 0.067027
v 0.171390 0.051700 -0.000000
v 0.111075 0.064090 -0.038698
v 0.067913 0.052525 -0.038698
v 0.046332 0.046742 -0.000000
v 0.067913 0.052525 0.038698
v 0.111075 0.064090 0.038698
v 0.132656 0.069872 0.000000
v 0.125883 -0.077500 -0.000000
v 0.086881 0.068058 0.000000
v 0.131783 0.045159 -0.010960
v 0.137045 0.038958 -0.010960
v 0.189697 0.097032 -0.062915
v 0.197654 0.087655 -0.062915
v 0.185009 0.093054 -0.073566
v 0.192966 0.083676 -0.073566
v 0.128682 0.042528 -0.018004
v 0.133944 0.036327 -0.018004
v 0.128682 0.042528 0.026092
v 0.133944 0.036327 0.026092
v 0.185009 0.093054 0.081654
v 0.192966 0.083676 0.081654
v 0.189697 0.097032 0.071003
v 0.197654 0.087655 0.071003
v 0.131783 0.045159 0.019048
v 0.137045 0.038958 0.019048
vt 0.315771 0.928877
vt 0.308847 0.882544
vt 0.331860 0.882544
vt 0.339855 0.936045
vt 0.315769 0.836211
vt 0.339853 0.829042
vt 0.359156 0.882543
vt 0.373248 0.926167
vt 0.373247 0.838919
vt 0.377976 0.882542
vt 0.386562 0.907729
vt 0.386561 0.857356
vt 0.557105 0.815856
vt 0.555732 0.770942
vt 0.574864 0.762855
vt 0.583383 0.815517
vt 0.534110 0.802579
vt 0.535945 0.778856
vt 0.526988 0.734673
vt 0.547296 0.718830
vt 0.594934 0.755061
vt 0.606717 0.804881
vt 0.519356 0.760393
vt 0.570502 0.711873
vt 0.019415 0.208650
vt 0.098454 0.101613
vt 0.235636 0.092370
vt 0.226271 0.192778
vt 0.240669 0.038414
vt 0.385922 0.082253
vt 0.387523 0.180383
vt 0.016649 0.337178
vt 0.212471 0.340738
vt 0.370138 0.011508
vt 0.361957 0.343293
vt 0.198904 0.486196
vt 0.123139 0.488906
vt 0.047778 0.491073
vt 0.287516 0.428752
vt 0.914230 0.883648
vt 0.857856 0.948492
vt 0.804111 0.980095
vt 0.802070 0.874038
vt 0.683968 0.863918
vt 0.728188 0.960321
vt 0.952583 0.820553
vt 0.800163 0.774940
vt 0.656206 0.731860
vt 0.957829 0.697883
vt 0.798050 0.665106
vt 0.655974 0.635962
vt 0.922973 0.605117
vt 0.796202 0.569108
vt 0.661715 0.530907
vt 0.796754 0.513131
vt 0.862012 0.553246
vt 0.677577 0.474114
vt 0.059200 0.872404
vt 0.171770 0.872853
vt 0.160262 0.978303
vt 0.109555 0.942025
vt 0.026637 0.806135
vt 0.182523 0.774322
vt 0.290303 0.873326
vt 0.237648 0.965392
vt 0.032371 0.683487
vt 0.194440 0.665116
vt 0.329752 0.744275
vt 0.075376 0.594206
vt 0.204856 0.569667
vt 0.338551 0.648782
vt 0.209308 0.513864
vt 0.140727 0.547989
vt 0.342219 0.543634
vt 0.331495 0.485650
vt 0.621225 0.287079
vt 0.825836 0.321416
vt 0.826150 0.422269
vt 0.690346 0.400770
vt 0.629995 0.158823
vt 0.825375 0.172800
vt 0.985308 0.348238
vt 0.974913 0.445828
vt 0.826318 0.476465
vt 0.824921 0.026698
vt 0.674797 0.008343
vt 0.749659 0.017258
vt 0.974453 0.183696
vt 0.952850 0.514871
vt 0.907976 0.091908
vt 0.474380 0.258820
vt 0.494087 0.293257
vt 0.490536 0.338321
vt 0.453549 0.291016
vt 0.500230 0.215309
vt 0.518946 0.262332
vt 0.534476 0.297394
vt 0.488105 0.369174
vt 0.436144 0.304504
vt 0.480792 0.168431
vt 0.462217 0.132150
vt 0.526772 0.172054
vt 0.550801 0.139131
vt 0.549554 0.313442
vt 0.507232 0.126456
vt 0.512169 0.063814
vt 0.504812 0.634447
vt 0.461792 0.678332
vt 0.462003 0.630995
vt 0.485823 0.598507
vt 0.520779 0.651160
vt 0.461658 0.708398
vt 0.419165 0.634066
vt 0.438473 0.598296
vt 0.462356 0.551637
vt 0.507717 0.474261
vt 0.483911 0.507408
vt 0.403050 0.650635
vt 0.417686 0.473860
vt 0.441196 0.507218
vt 0.463027 0.400894
vt 0.462746 0.464014
vt 0.494694 0.767882
vt 0.489275 0.793886
vt 0.465544 0.803352
vt 0.475354 0.751239
vt 0.513323 0.786066
vt 0.509392 0.811381
vt 0.506813 0.836841
vt 0.426050 0.841627
vt 0.448867 0.882542
vt 0.425223 0.882542
vt 0.412049 0.858920
vt 0.426050 0.923458
vt 0.412049 0.906165
vt 0.397280 0.882542
vt 0.528760 0.459242
vt 0.463181 0.366249
vt 0.396777 0.458655
vt 0.514824 0.030118
vt 0.426048 0.967885
vt 0.380413 0.967884
vt 0.376884 0.945670
vt 0.429579 0.945672
vt 0.380415 0.797201
vt 0.426050 0.797201
vt 0.429580 0.819414
vt 0.376885 0.819414
vt 0.522978 0.943025
vt 0.518902 0.939567
vt 0.550908 0.899733
vt 0.557071 0.904963
vt 0.564627 0.907315
vt 0.570518 0.913437
vt 0.531870 0.948629
vt 0.527974 0.944580
vt 0.567688 0.904370
vt 0.573579 0.910492
vt 0.620378 0.949648
vt 0.616090 0.946009
vt 0.648833 0.905195
vt 0.655318 0.910697
vt 0.651585 0.901953
vt 0.658069 0.907455
vt 0.634147 0.899256
vt 0.640800 0.903828
vt 0.610776 0.945105
vt 0.606375 0.942080
vt 0.516635 0.934671
vt 0.547480 0.892330
vt 0.622245 0.954544
vt 0.658140 0.918099
vt 0.571579 0.124803
vt 0.443939 0.114745
vn -0.088186 0.996104 -0.000414
vn -0.088078 0.996114 -0.000064
vn -0.087619 0.996154 0.000334
vn -0.087499 0.996165 0.000339
vn -0.087251 0.996186 0.000595
vn -0.086837 0.996222 0.001017
vn -0.087448 0.996169 -0.000958
vn -0.088098 0.996110 -0.001744
vn -0.088098 0.996110 -0.001744
vn -0.088166 0.996105 -0.001068
vn -0.087287 0.996183 -0.000029
vn -0.084918 0.996386 0.002098
vn -0.086231 0.996274 0.001420
vn -0.087556 0.996160 0.000318
vn -0.087409 0.996172 0.000341
vn -0.087156 0.996195 -0.000000
vn -0.087156 0.996195 -0.000000
vn -0.087156 0.996195 0.000000
vn -0.087156 0.996195 0.000000
vn -0.087156 0.996195 0.000000
vn -0.087156 0.996195 0.000000
vn -0.087156 0.996195 0.000000
vn -0.087156 0.996195 -0.000000
vn -0.087156 0.996195 -0.000000
vn -0.087156 0.996195 0.000000
vn -0.087156 0.996195 0.000000
vn -0.087156 0.996195 0.000000
vn -0.087156 0.996195 0.000000
vn -0.087156 0.996195 0.000000
vn -0.087156 0.996195 -0.000000
vn -0.087156 0.996195 0.000000
vn -0.087156 0.996195 -0.000000
vn -0.087156 0.996195 -0.000000
vn -0.087156 0.996195 0.000000
vn -0.087156 0.996195 0.000000
vn -0.087156 0.996195 -0.000000
vn -0.087156 0.996195 0.000000
vn -0.087156 0.996195 -0.000000
vn -0.087156 0.996195 -0.000000
vn -0.087156 0.996195 -0.000000
vn -0.087156 0.996195 -0.000000
vn -0.087156 0.996195 0.000000
vn -0.087156 0.996195 0.000000
vn -0.087156 0.996195 -0.000000
vn -0.087156 0.996195 -0.000000
vn -0.087156 0.996195 -0.000000
vn -0.087156 0.996195 0.000000
vn -0.087156 0.996195 -0.000000
vn -0.087156 0.996195 -0.000000
vn -0.087156 0.996195 -0.000000
vn -0.087156 0.996195 -0.000000
vn -0.086126 0.996284 -0.000414
vn -0.086813 0.996225 0.000339
vn -0.086693 0.996235 0.000334
vn -0.086234 0.996275 -0.000064
vn -0.087474 0.996166 0.001016
vn -0.087060 0.996203 0.000595
vn -0.086864 0.996220 -0.000957
vn -0.087024 0.996206 -0.000028
vn -0.086145 0.996282 -0.001067
vn -0.086213 0.996275 -0.001743
vn -0.086213 0.996275 -0.001743
vn -0.089393 0.995994 0.002098
vn -0.088080 0.996112 0.001420
vn -0.086902 0.996217 0.000341
vn -0.086756 0.996230 0.000318
vn 0.059022 -0.899376 -0.433174
vn -0.019429 -0.915382 -0.402117
vn -0.108219 -0.643181 -0.758028
vn 0.141615 -0.617195 -0.773961
vn -0.147822 -0.989014 -0.000000
vn -0.481061 -0.876687 -0.000000
vn -0.019429 -0.915382 0.402117
vn -0.108219 -0.643181 0.758028
vn 0.059022 -0.899376 0.433174
vn 0.141615 -0.617195 0.773961
vn 0.182603 -0.983187 0.000000
vn 0.530905 -0.847431 0.000000
vn -0.273193 -0.012220 -0.961882
vn 0.241478 0.011479 -0.970338
vn -0.999985 0.005464 -0.000000
vn -0.273193 -0.012220 0.961882
vn 0.241478 0.011479 0.970338
vn 0.999889 -0.014881 0.000001
vn -0.160389 0.585532 -0.794624
vn 0.123829 0.611913 -0.781171
vn -0.507454 0.861679 -0.000000
vn -0.160389 0.585532 0.794624
vn 0.123829 0.611913 0.781171
vn 0.555585 0.831460 0.000000
vn -0.133897 0.833555 -0.535964
vn -0.014399 0.875234 -0.483485
vn -0.263104 0.964767 -0.000000
vn -0.133897 0.833555 0.535964
vn -0.014399 0.875234 0.483485
vn 0.218048 0.975938 0.000000
vn 0.007194 -0.999974 -0.000000
vn -0.137701 0.990474 -0.000000
vn 0.490919 -0.711906 -0.502185
vn -0.069195 -0.861988 -0.502185
vn -0.298189 -0.579333 -0.758588
vn 0.547906 -0.352623 -0.758588
vn -0.349252 -0.937029 0.000000
vn -0.721237 -0.692689 -0.000000
vn -0.069195 -0.861988 0.502184
vn -0.298189 -0.579333 0.758588
vn 0.490919 -0.711906 0.502184
vn 0.547906 -0.352623 0.758588
vn 0.770976 -0.636865 -0.000000
vn 0.970954 -0.239267 0.000000
vn -0.482963 -0.129410 -0.866026
vn 0.482963 0.129410 -0.866025
vn -0.965926 -0.258819 -0.000000
vn -0.482963 -0.129410 0.866025
vn 0.482963 0.129409 0.866026
vn 0.965926 0.258819 0.000000
vn -0.547906 0.352623 -0.758588
vn 0.298189 0.579333 -0.758588
vn -0.970954 0.239267 -0.000000
vn -0.547906 0.352623 0.758588
vn 0.298189 0.579333 0.758588
vn 0.721237 0.692689 0.000000
vn -0.490919 0.711905 -0.502185
vn 0.069195 0.861988 -0.502184
vn -0.770976 0.636864 -0.000000
vn -0.490919 0.711905 0.502185
vn 0.069195 0.861988 0.502184
vn 0.349251 0.937029 -0.000000
vn 0.258819 -0.965926 0.000000
vn -0.258818 0.965926 0.000000
vn 0.423753 0.359562 0.831354
vn 0.423753 0.359562 0.831354
vn 0.423753 0.359562 0.831354
vn 0.423753 0.359562 0.831354
vn 0.660340 0.560313 -0.500000
vn 0.660340 0.560313 -0.500000
vn 0.660340 0.560313 -0.500000
vn 0.660340 0.560313 -0.500000
vn -0.451409 -0.383029 -0.805928
vn -0.451409 -0.383029 -0.805927
vn -0.451409 -0.383029 -0.805927
vn -0.451409 -0.383029 -0.805927
vn 0.632093 -0.774812 0.011159
vn 0.632093 -0.774812 0.011159
vn 0.632093 -0.774812 0.011159
vn 0.632093 -0.774812 0.011159
vn -0.661569 0.749801 0.011160
vn -0.661569 0.749801 0.011160
vn -0.661569 0.749801 0.011160
vn -0.661569 0.749801 0.011160
vn -0.451409 -0.383029 0.805927
vn -0.451409 -0.383029 0.805928
vn -0.451409 -0.383029 0.805928
vn -0.451409 -0.383029 0.805928
vn 0.660341 0.560313 0.500000
vn 0.660341 0.560313 0.500000
vn 0.660341 0.560313 0.500000
vn 0.660341 0.560313 0.500000
vn 0.423753 0.359561 -0.831354
vn 0.423753 0.359561 -0.831354
vn 0.423753 0.359561 -0.831354
vn 0.423753 0.359561 -0.831354
vn 0.632093 -0.774812 -0.011159
vn 0.632093 -0.774812 -0.011159
vn 0.632093 -0.774812 -0.011159
vn 0.632093 -0.774812 -0.011159
vn -0.661569 0.749801 -0.011160
vn -0.661569 0.749801 -0.011160
vn -0.661569 0.749801 -0.011160
vn -0.661569 0.749801 -0.011160
s 1
g Butterfly
usemtl initialShadingGroup
f 1/25/1 6/26/2 15/27/3 14/28/4
f 14/28/4 15/27/3 11/30/5 12/31/6
f 5/36/7 4/37/8 3/38/9 2/32/10 13/33/11
f 7/39/12 5/36/7 13/33/11 9/35/13
f 2/32/10 1/25/1 14/28/4 13/33/11
f 13/33/11 14/28/4 12/31/6 9/35/13
f 15/27/3 8/29/14 10/34/15 11/30/5
f 6/26/2 8/29/14 15/27/3
s 2
f 17/40/16 16/41/17 20/42/18 30/43/19
f 24/44/20 30/43/19 20/42/18 22/45/21
f 25/55/22 23/56/23 21/52/24 33/53/25
f 28/54/26 29/57/27 25/55/22 33/53/25
f 24/44/20 26/48/28 31/47/29 30/43/19
f 18/46/30 17/40/16 30/43/19 31/47/29
f 26/48/28 27/51/31 32/50/32 31/47/29
f 19/49/33 18/46/30 31/47/29 32/50/32
f 27/51/31 28/54/26 33/53/25 32/50/32
f 21/52/24 19/49/33 32/50/32 33/53/25
s 4
f 35/58/34 48/59/35 38/60/36 34/61/37
f 42/64/38 40/65/39 38/60/36 48/59/35
f 43/72/40 51/70/41 39/69/42 41/73/43
f 46/74/44 51/70/41 43/72/40 47/75/45
f 42/64/38 48/59/35 49/63/46 44/68/47
f 36/62/48 49/63/46 48/59/35 35/58/34
f 44/68/47 49/63/46 50/67/49 45/71/50
f 37/66/51 50/67/49 49/63/46 36/62/48
f 45/71/50 50/67/49 51/70/41 46/74/44
f 39/69/42 51/70/41 50/67/49 37/66/51
s 6
f 52/76/52 65/77/53 66/78/54 57/79/55
f 65/77/53 63/82/56 62/83/57 66/78/54
f 56/85/58 64/81/59 53/80/60 54/86/61 55/87/62
f 58/90/63 60/88/64 64/81/59 56/85/58
f 53/80/60 64/81/59 65/77/53 52/76/52
f 64/81/59 60/88/64 63/82/56 65/77/53
f 66/78/54 62/83/57 61/89/65 59/84/66
f 57/79/55 66/78/54 59/84/66
s 8
f 67/100/67 68/91/68 74/94/69 73/101/70
f 68/91/68 69/92/71 75/93/72 74/94/69
f 69/92/71 70/96/73 76/97/74 75/93/72
f 70/96/73 71/102/75 77/103/76 76/97/74
f 71/102/75 72/105/77 78/106/78 77/103/76
f 72/105/77 67/100/67 73/101/70 78/106/78
f 73/101/70 74/94/69 80/99/79 79/174/80
f 74/94/69 75/93/72 81/98/81 80/99/79
f 75/93/72 76/97/74 82/104/82 81/98/81
f 76/97/74 77/103/76 83/173/83 82/104/82
f 77/103/76 78/106/78 84/140/84 83/173/83
f 78/106/78 73/101/70 79/174/80 84/140/84
f 79/137/80 80/111/79 86/107/85 85/116/86
f 80/111/79 81/112/81 87/108/87 86/107/85
f 81/112/81 82/118/82 88/113/88 87/108/87
f 82/118/82 83/139/83 89/119/89 88/113/88
f 83/139/83 84/138/84 90/121/90 89/119/89
f 84/138/84 79/137/80 85/116/86 90/121/90
f 85/116/86 86/107/85 92/110/91 91/117/92
f 86/107/85 87/108/87 93/109/93 92/110/91
f 87/108/87 88/113/88 94/114/94 93/109/93
f 88/113/88 89/119/89 95/120/95 94/114/94
f 89/119/89 90/121/90 96/122/96 95/120/95
f 90/121/90 85/116/86 91/117/92 96/122/96
f 68/91/68 67/100/67 97/95/97
f 69/92/71 68/91/68 97/95/97
f 70/96/73 69/92/71 97/95/97
f 71/102/75 70/96/73 97/95/97
f 72/105/77 71/102/75 97/95/97
f 67/100/67 72/105/77 97/95/97
f 91/117/92 92/110/91 98/115/98
f 92/110/91 93/109/93 98/115/98
f 93/109/93 94/114/94 98/115/98
f 94/114/94 95/120/95 98/115/98
f 95/120/95 96/122/96 98/115/98
f 96/122/96 91/117/92 98/115/98
s 9
f 99/23/99 100/123/100 106/126/101 105/19/102
f 100/123/100 101/124/103 107/125/104 106/126/101
f 101/124/103 102/128/105 108/129/106 107/125/104
f 102/128/105 103/17/107 109/13/108 108/129/106
f 103/17/107 104/18/109 110/14/110 109/13/108
f 104/18/109 99/23/99 105/19/102 110/14/110
f 105/141/102 106/142/101 112/143/111 111/144/112
f 106/1/101 107/2/104 113/3/113 112/4/111
f 107/2/104 108/5/106 114/6/114 113/3/113
f 108/145/106 109/146/108 115/147/115 114/148/114
f 109/13/108 110/14/110 116/15/116 115/16/115
f 110/14/110 105/19/102 111/20/112 116/15/116
f 111/144/112 112/143/111 118/8/117 117/134/118
f 112/4/111 113/3/113 119/7/119 118/8/117
f 113/3/113 114/6/114 120/9/120 119/7/119
f 114/148/114 115/147/115 121/130/121 120/9/120
f 115/16/115 116/15/116 122/21/122 121/22/121
f 116/15/116 111/20/112 117/24/118 122/21/122
f 117/134/118 118/8/117 124/11/123 123/135/124
f 118/8/117 119/7/119 125/10/125 124/11/123
f 119/7/119 120/9/120 126/12/126 125/10/125
f 120/9/120 121/130/121 127/133/127 126/12/126
f 121/130/121 122/131/122 128/132/128 127/133/127
f 122/131/122 117/134/118 123/135/124 128/132/128
f 100/123/100 99/23/99 129/127/129
f 101/124/103 100/123/100 129/127/129
f 102/128/105 101/124/103 129/127/129
f 103/17/107 102/128/105 129/127/129
f 104/18/109 103/17/107 129/127/129
f 99/23/99 104/18/109 129/127/129
f 123/135/124 124/11/123 130/136/130
f 124/11/123 125/10/125 130/136/130
f 125/10/125 126/12/126 130/136/130
f 126/12/126 127/133/127 130/136/130
f 127/133/127 128/132/128 130/136/130
f 128/132/128 123/135/124 130/136/130
s off
f 131/149/131 132/150/132 134/151/133 133/152/134
f 133/157/135 134/158/136 136/154/137 135/153/138
f 135/153/139 136/154/140 138/155/141 137/156/142
f 132/150/143 138/169/144 136/170/145 134/151/146
f 137/156/147 131/149/148 133/152/149 135/153/150
f 139/159/151 140/160/152 142/161/153 141/162/154
f 141/162/155 142/161/156 144/163/157 143/164/158
f 143/165/159 144/166/160 146/167/161 145/168/162
f 140/160/163 146/167/164 144/166/165 142/161/166
f 145/171/167 139/159/168 141/162/169 143/172/170
